<?xml version="1.0" encoding="utf-8"?>
<!-- Generator: Adobe Illustrator 16.0.0, SVG Export Plug-In . SVG Version: 6.00 Build 0)  -->
<!DOCTYPE svg PUBLIC "-//W3C//DTD SVG 1.1//EN" "http://www.w3.org/Graphics/SVG/1.1/DTD/svg11.dtd">
<svg version="1.1" id="Capa_1" xmlns="http://www.w3.org/2000/svg" xmlns:xlink="http://www.w3.org/1999/xlink" x="0px" y="0px"
	 width="595.281px" height="841.891px" viewBox="0 0 595.281 841.891" enable-background="new 0 0 595.281 841.891"
	 xml:space="preserve">
<g>
	<path fill="#FFFFFF" d="M593.896,354.864l0.006-0.002l-0.186-1.525c-0.002-0.026-0.004-0.047-0.008-0.072
		c-0.002-0.022-0.004-0.042-0.008-0.064l-0.691-5.737c-0.139-1.152-0.297-2.466-0.477-3.963l-0.145-1.192l-0.295,0.036
		c-7.262-41.297-27.209-80.487-58.102-113.95c-30.75-33.302-70.699-59.597-115.527-76.04
		c-38.41-14.089-79.164-21.233-121.127-21.233c-56.651,0-111.671,13.324-159.108,38.53C46.753,218.254-7.197,307.592,0.777,397.251
		c4.127,46.396,22.303,90.559,52.564,127.72c28.482,34.977,67.012,63.201,111.422,81.625c27.306,11.326,54.305,16.664,82.892,22.314
		l3.347,0.663c7.871,1.558,9.987,3.697,10.533,4.545c1.01,1.573,0.482,4.676,0.076,6.384c-0.373,1.576-0.759,3.147-1.144,4.722
		c-3.07,12.517-6.244,25.461-3.75,39.732c2.867,16.405,13.111,25.814,28.107,25.816c0.002,0,0.002,0,0.004,0
		c16.13,0,34.49-10.82,46.636-17.979l1.623-0.953c28.979-17.02,56.281-36.218,76.828-51.041
		c44.963-32.439,95.924-69.209,134.131-116.776C582.521,476.113,600.644,414.55,593.896,354.864z M185.379,445.632h-51.356
		c-7.761,0-14.053-6.292-14.053-14.053V323.784c0-7.761,6.292-14.053,14.053-14.053c7.761,0,14.052,6.292,14.052,14.053v93.742
		h37.301c7.761,0,14.053,6.292,14.053,14.053C199.431,439.34,193.14,445.632,185.379,445.632z M238.953,431.198
		c0,7.761-6.292,14.052-14.052,14.052c-7.761,0-14.053-6.291-14.053-14.052V323.403c0-7.762,6.292-14.053,14.053-14.053
		c7.761,0,14.052,6.291,14.052,14.053V431.198z M365.976,431.198c0,6.088-3.922,11.484-9.713,13.365
		c-1.43,0.464-2.893,0.688-4.338,0.688c-4.414,0-8.68-2.085-11.375-5.797l-50.603-69.695v61.44c0,7.761-6.292,14.052-14.052,14.052
		c-7.761,0-14.053-6.291-14.053-14.052V326.488c0-6.089,3.921-11.484,9.712-13.366c5.793-1.879,12.135,0.181,15.713,5.109
		l50.603,69.694v-64.522c0-7.762,6.291-14.053,14.053-14.053c7.76,0,14.053,6.291,14.053,14.053V431.198z M468.373,443.038h-69.551
		c-7.76,0-14.053-6.292-14.053-14.053V375.09V321.19c0-7.761,6.293-14.053,14.053-14.053h67.393c7.76,0,14.053,6.292,14.053,14.053
		s-6.293,14.053-14.053,14.053h-53.34v25.794h43.285c7.762,0,14.053,6.292,14.053,14.053s-6.291,14.053-14.053,14.053h-43.285v25.79
		h55.498c7.76,0,14.053,6.292,14.053,14.053S476.132,443.038,468.373,443.038z"/>
</g>
</svg>
